<?xml version="1.0" encoding="utf-8"?>
<!-- Generator: Adobe Illustrator 26.1.0, SVG Export Plug-In . SVG Version: 6.00 Build 0)  -->
<svg version="1.1" id="Layer_2" xmlns="http://www.w3.org/2000/svg" xmlns:xlink="http://www.w3.org/1999/xlink" x="0px" y="0px"
	 viewBox="0 0 3310.2 2241.3" style="enable-background:new 0 0 3310.2 2241.3;" xml:space="preserve">
<style type="text/css">
	.st0{fill:none;stroke:#3f3f3f;stroke-width:0.75;stroke-miterlimit:10;}
	.st1{fill:none;stroke:#fff;stroke-width:0.75;stroke-miterlimit:10;}
	.st2{fill:#fff;}
	.st3{fill:#646464;}

	.fade1{
	  opacity: 0;
	  animation: fadein1 2s ease-in alternate infinite;
  }
  .fade2{
	  opacity: 0;
	  animation: fadein1 2s 0.3s ease-in alternate infinite;
  }
  .fade3{
	  opacity: 0;
	  animation: fadein1 2s 0.6s ease-in alternate infinite;
  }
  .fade4{
	  opacity: 0;
	  animation: fadein1 2s 0.9s ease-in alternate infinite;
  }
  .fade5{
	  opacity: 0;
	  animation: fadein1 2s 1.2s ease-in alternate infinite;
  }
  .fade6{
	  opacity: 0;
	  animation: fadein1 2s 1.5s ease-in alternate infinite;
  }
  .fade7{
	  opacity: 0;
	  animation: fadein1 2s 2.1s ease-in alternate infinite;
  }
  .fade8{
	  opacity: 0;
	  animation: fadein1 2s 2.1s ease-in alternate infinite;
  }
  .fade9{
	  opacity: 0;
	  animation: fadein1 2s 2.4s ease-in alternate infinite;
  }
  .fade10{
	  opacity: 0;
	  animation: fadein1 2s 2.7s ease-in alternate infinite;
  }
  .fade11{
	  opacity: 0;
	  animation: fadein1 2s 3.0s ease-in alternate infinite;
  }
  .fade12{
	  opacity: 0;
	  animation: fadein1 2s 3.3s ease-in alternate infinite;
  }
  .fade13{
	  opacity: 0;
	  animation: fadein1 2s 3.6s ease-in alternate infinite;
  }
  .fade14{
	  opacity: 0;
	  animation: fadein1 2s 3.9s ease-in alternate infinite;
  }
  .fade15{
	  opacity: 0;
	  animation: fadein1 2s 4.2s ease-in alternate infinite;
  }
  .fade16{
	  opacity: 0;
	  animation: fadein1 2s 4.5s ease-in alternate infinite;
  }
  .fade17{
	  opacity: 0;
	  animation: fadein1 2s 4.8s ease-in alternate infinite;
  }
  .fade18{
	  opacity: 0;
	  animation: fadein1 2s 5.1s ease-in alternate infinite;
  }
  .fade19{
	  opacity: 0;
	  animation: fadein1 2s 5.4s ease-in alternate infinite;
  }
  .fade20{
	  opacity: 0;
	  animation: fadein1 2s 5.7s ease-in alternate infinite;
  }
  @keyframes fadein1 {
	 0% { opacity: 0; }
	 100% { opacity: 1; }
  }

	#rect1 { fill: url(#logo-gradient); }
</style>


<!-- <linearGradient id="logo-gradient" x1="50%" y1="10%" x2="50%" y2="100%" >
		<stop offset="0%" stop-color="#2757D5">
				<animate attributeName="stop-color" values="#73CCF9; #216DDB; #73CCF9" dur="4s" repeatCount="indefinite"></animate>
		</stop>
		<stop offset="100%" stop-color="#216DDB">
				<animate attributeName="stop-color" values="#2757D5; #73CCF9; #2757D5" dur="4s" repeatCount="indefinite"></animate>
		</stop>
</linearGradient>
<rect id="rect1" x="0" y="0" rx="0" ry="0" width="100%" height="100%"/> -->

<polygon class="st0" points="2839.2,713.2 2721.6,713.2 2662.8,815 2721.6,916.9 2839.2,916.9 2898,815 "/>
<g class="fade10">
	<polygon class="st0" points="2839.2,509.4 2721.6,509.4 2662.8,611.3 2721.6,713.2 2839.2,713.2 2898,611.3 "/>
</g>
<polygon class="st0" points="2309.9,611.3 2192.3,611.3 2133.5,713.2 2192.3,815 2309.9,815 2368.8,713.2 "/>
<polygon class="st0" points="2486.2,713.2 2368.5,713.2 2309.7,815 2368.5,916.9 2486.2,916.9 2545,815 "/>
<polygon class="st0" points="2486.2,509.4 2368.5,509.4 2309.7,611.3 2368.5,713.1 2486.2,713.1 2545,611.3 "/>
<polygon class="st0" points="2486.2,305.6 2368.5,305.6 2309.7,407.5 2368.5,509.4 2486.2,509.4 2545,407.5 "/>
<polygon class="st0" points="2662.7,611.3 2545,611.3 2486.2,713.2 2545,815 2662.7,815 2721.5,713.2 "/>
<polygon class="st0" points="2662.7,203.8 2545,203.8 2486.2,305.6 2545,407.5 2662.7,407.5 2721.5,305.6 "/>
<g class="fade4">
	<polygon class="st0" points="3016.1,815 2898.5,815 2839.6,916.9 2898.5,1018.8 3016.1,1018.8 3074.9,916.9 "/>
</g>
<g class="fade6">
	<polygon class="st0" points="2839.2,916.9 2721.6,916.9 2662.8,1018.8 2721.6,1120.7 2839.2,1120.7 2898,1018.8 "/>
</g>
<polygon class="st0" points="2486.2,1120.7 2368.5,1120.7 2309.7,1222.5 2368.5,1324.4 2486.2,1324.4 2545,1222.5 "/>
<polygon class="st0" points="2309.9,1018.8 2192.3,1018.8 2133.5,1120.7 2192.3,1222.5 2309.9,1222.5 2368.8,1120.7 "/>
<polygon class="st0" points="2133.4,1120.7 2015.8,1120.7 1957,1222.5 2015.8,1324.4 2133.4,1324.4 2192.3,1222.5 "/>
<polygon class="st0" points="1956.9,1018.8 1839.3,1018.8 1780.5,1120.7 1839.3,1222.5 1956.9,1222.5 2015.8,1120.7 "/>
<polygon class="st0" points="1781.6,1324.4 1664,1324.4 1605.2,1426.3 1664,1528.2 1781.6,1528.2 1840.4,1426.3 "/>
<polygon class="st0" points="1781.6,916.9 1664,916.9 1605.2,1018.8 1664,1120.7 1781.6,1120.7 1840.4,1018.8 "/>
<polygon class="st0" points="1956.9,1222.5 1839.3,1222.5 1780.5,1324.4 1839.3,1426.3 1956.9,1426.3 2015.8,1324.4 "/>
<polygon class="st0" points="1605.7,1222.5 1488,1222.5 1429.2,1324.4 1488,1426.3 1605.7,1426.3 1664.5,1324.4 "/>
<g class="fade4">
	<polygon class="st0" points="2662.7,1222.5 2545,1222.5 2486.2,1324.4 2545,1426.3 2662.7,1426.3 2721.5,1324.4 "/>
</g>
	<polygon class="st0" points="2662.7,1426.3 2545,1426.3 2486.2,1528.2 2545,1630.1 2662.7,1630.1 2721.5,1528.2 "/>
<polygon class="st0" points="2662.7,1630.1 2545,1630.1 2486.2,1731.9 2545,1833.8 2662.7,1833.8 2721.5,1731.9 "/>
<g class="fade14">
	<polygon class="st0" points="2839.2,1731.9 2721.6,1731.9 2662.8,1833.8 2721.6,1935.7 2839.2,1935.7 2898,1833.8 "/>
</g>
<polygon class="st0" points="2839.2,1935.7 2721.6,1935.7 2662.8,2037.6 2721.6,2139.5 2839.2,2139.5 2898,2037.6 "/>
<polygon class="st0" points="2309.9,1630.1 2192.3,1630.1 2133.5,1731.9 2192.3,1833.8 2309.9,1833.8 2368.8,1731.9 "/>
<polygon class="st0" points="2309.9,2037.6 2192.3,2037.6 2133.5,2139.5 2192.3,2241.3 2309.9,2241.3 2368.8,2139.5 "/>
<polygon class="st0" points="1956.9,1630.1 1839.3,1630.1 1780.5,1731.9 1839.3,1833.8 1956.9,1833.8 2015.8,1731.9 "/>
<polygon class="st0" points="2133.4,1731.9 2015.8,1731.9 1957,1833.8 2015.8,1935.7 2133.4,1935.7 2192.3,1833.8 "/>
<polygon class="st0" points="2133.4,1935.7 2015.8,1935.7 1957,2037.6 2015.8,2139.5 2133.4,2139.5 2192.3,2037.6 "/>
<polygon class="st0" points="2486.2,1528.2 2368.5,1528.2 2309.7,1630.1 2368.5,1731.9 2486.2,1731.9 2545,1630.1 "/>
<polygon class="st0" points="2133.4,1528.2 2015.8,1528.2 1957,1630.1 2015.8,1731.9 2133.4,1731.9 2192.3,1630.1 "/>
<g class="fade6">
	<polygon class="st0" points="2839.2,1324.4 2721.6,1324.4 2662.8,1426.3 2721.6,1528.2 2839.2,1528.2 2898,1426.3 "/>
</g>
<polygon class="st0" points="3016.1,1222.5 2898.5,1222.5 2839.6,1324.4 2898.5,1426.3 3016.1,1426.3 3074.9,1324.4 "/>
<polygon class="st0" points="2662.7,1018.8 2545,1018.8 2486.2,1120.7 2545,1222.5 2662.7,1222.5 2721.5,1120.7 "/>
<g class="fade4">
	<polygon class="st1" points="3074.5,509.4 2956.9,509.4 2898,611.3 2956.9,713.2 3074.5,713.2 3133.3,611.3 "/>
</g>
<g class="fade12">
	<polygon class="st1" points="3074.5,305.6 2956.9,305.6 2898,407.5 2956.9,509.4 3074.5,509.4 3133.3,407.5 "/>
</g>
<polygon class="st1" points="2545.2,407.5 2427.6,407.5 2368.8,509.4 2427.6,611.3 2545.2,611.3 2604,509.4 "/>
<polygon class="st1" points="2721.4,509.4 2603.8,509.4 2545,611.3 2603.8,713.2 2721.4,713.2 2780.3,611.3 "/>




<polygon class="st1" points="2721.4,305.6 2603.8,305.6 2545,407.5 2603.8,509.4 2721.4,509.4 2780.3,407.5 "/>
<polygon class="st1" points="2721.4,101.8 2603.8,101.8 2545,203.7 2603.8,305.6 2721.4,305.6 2780.3,203.7 "/>
<polygon class="st1" points="2897.9,407.5 2780.3,407.5 2721.5,509.4 2780.3,611.3 2897.9,611.3 2956.8,509.4 "/>
<polygon class="st1" points="2897.9,0 2780.3,0 2721.5,101.9 2780.3,203.8 2897.9,203.8 2956.8,101.9 "/>
<polygon class="st1" points="3251.4,611.3 3133.7,611.3 3074.9,713.2 3133.7,815 3251.4,815 3310.2,713.2 "/>
<g class="fade1">
	<polygon class="st1" points="3074.5,713.2 2956.9,713.2 2898,815 2956.9,916.9 3074.5,916.9 3133.3,815 "/>
</g>
<g class="fade3">
	<polygon class="st1" points="2721.4,916.9 2603.8,916.9 2545,1018.8 2603.8,1120.7 2721.4,1120.7 2780.3,1018.8 "/>
</g>
<polygon class="st1" points="2545.2,815 2427.6,815 2368.8,916.9 2427.6,1018.8 2545.2,1018.8 2604,916.9 "/>
<polygon class="st1" points="2368.7,916.9 2251.1,916.9 2192.3,1018.8 2251.1,1120.7 2368.7,1120.7 2427.5,1018.8 "/>
<polygon class="st1" points="2192.2,815 2074.6,815 2015.8,916.9 2074.6,1018.8 2192.2,1018.8 2251,916.9 "/>
<polygon class="st1" points="2016.9,1120.7 1899.3,1120.7 1840.4,1222.5 1899.3,1324.4 2016.9,1324.4 2075.7,1222.5 "/>
<polygon class="st1" points="2016.9,713.1 1899.3,713.1 1840.4,815 1899.3,916.9 2016.9,916.9 2075.7,815 "/>
<polygon class="st1" points="2192.2,1018.8 2074.6,1018.8 2015.8,1120.7 2074.6,1222.5 2192.2,1222.5 2251,1120.7 "/>
<polygon class="st1" points="1839.3,1018.8 1721.7,1018.8 1662.8,1120.7 1721.7,1222.5 1839.3,1222.5 1898.1,1120.7 "/>
<polygon class="st1" points="2897.9,1018.8 2780.3,1018.8 2721.5,1120.7 2780.3,1222.5 2897.9,1222.5 2956.8,1120.7 "/>
<g class="fade7">
	<polygon class="st1" points="2897.9,1222.5 2780.3,1222.5 2721.5,1324.4 2780.3,1426.3 2897.9,1426.3 2956.8,1324.4 "/>
</g>
<g class="fade11">
	<polygon class="st1" points="2897.9,1426.3 2780.3,1426.3 2721.5,1528.2 2780.3,1630.1 2897.9,1630.1 2956.8,1528.2 "/>
</g>
<polygon class="st1" points="3074.5,1528.2 2956.9,1528.2 2898,1630.1 2956.9,1731.9 3074.5,1731.9 3133.3,1630.1 "/>
<polygon class="st1" points="3074.5,1731.9 2956.9,1731.9 2898,1833.8 2956.9,1935.7 3074.5,1935.7 3133.3,1833.8 "/>
<polygon class="st1" points="2545.2,1426.3 2427.6,1426.3 2368.8,1528.2 2427.6,1630.1 2545.2,1630.1 2604,1528.2 "/>
<polygon class="st1" points="2545.2,1833.8 2427.6,1833.8 2368.8,1935.7 2427.6,2037.6 2545.2,2037.6 2604,1935.7 "/>
<polygon class="st1" points="2545.2,2037.6 2427.6,2037.6 2368.8,2139.5 2427.6,2241.3 2545.2,2241.3 2604,2139.5 "/>
<polygon class="st1" points="2192.2,1426.3 2074.6,1426.3 2015.8,1528.2 2074.6,1630.1 2192.2,1630.1 2251,1528.2 "/>
<polygon class="st1" points="2368.7,1528.2 2251.1,1528.2 2192.3,1630.1 2251.1,1731.9 2368.7,1731.9 2427.5,1630.1 "/>
<polygon class="st1" points="2368.7,1731.9 2251.1,1731.9 2192.3,1833.8 2251.1,1935.7 2368.7,1935.7 2427.5,1833.8 "/>
<polygon class="st1" points="2721.4,1324.4 2603.8,1324.4 2545,1426.3 2603.8,1528.2 2721.4,1528.2 2780.3,1426.3 "/>
<polygon class="st1" points="2368.7,1324.4 2251.1,1324.4 2192.3,1426.3 2251.1,1528.2 2368.7,1528.2 2427.5,1426.3 "/>
<polygon class="st1" points="3074.5,1120.7 2956.9,1120.7 2898,1222.5 2956.9,1324.4 3074.5,1324.4 3133.3,1222.5 "/>
<g class="fade9">
	<polygon class="st1" points="3251.4,1018.8 3133.7,1018.8 3074.9,1120.7 3133.7,1222.5 3251.4,1222.5 3310.2,1120.7 "/>
</g>
<polygon class="st1" points="2897.9,815 2780.3,815 2721.5,916.9 2780.3,1018.8 2897.9,1018.8 2956.8,916.9 "/>

<g class="fade5">
	<circle class="st2" cx="2780.3" cy="1222.5" r="8.9"/>
</g>
<g class="fade13">
	<circle class="st2" cx="2427.3" cy="815" r="8.9"/>
</g>
<g class="fade15">
	<circle class="st2" cx="2898" cy="1426.3" r="8.9"/>
</g>
<g class="fade3">
<path class="st2" d="M2377.6,1528.2c0-4.9-4-8.9-9-8.9c-4.9,0-9,4-9,8.9c0,4.9,4,8.9,9,8.9
	C2373.6,1537.1,2377.6,1533.1,2377.6,1528.2z"/>
</g>
<g class="fade5">
<path class="st2" d="M2201.2,1833.8c0-4.9-4-8.9-8.9-8.9c-4.9,0-8.9,4-8.9,8.9c0,4.9,4,9,8.9,9
	C2197.2,1842.8,2201.2,1838.8,2201.2,1833.8z"/>
</g>
<path class="st2" d="M2436.5,2037.6c0-4.9-4-9-9-9c-4.9,0-9,4-9,9c0,4.9,4,8.9,9,8.9C2432.5,2046.5,2436.5,2042.5,2436.5,2037.6z"/>
<g class="fade7">
<path class="st2" d="M2907,1833.8c0-4.9-4-8.9-8.9-8.9c-4.9,0-8.9,4-8.9,8.9c0,4.9,4,9,8.9,9C2903,1842.8,2907,1838.8,2907,1833.8z"
	/>
</g>
<g class="fade3">
<path class="st2" d="M3083.9,1731.9c0-4.9-4-8.9-9-8.9c-4.9,0-8.9,4-8.9,8.9c0,4.9,4,8.9,8.9,8.9
	C3079.9,1740.9,3083.9,1736.9,3083.9,1731.9z"/>
</g>
<g class="fade19">
	<path class="st2" d="M3083.9,1120.7c0-4.9-4-8.9-9-8.9c-4.9,0-8.9,4-8.9,8.9c0,4.9,4,9,8.9,9
		C3079.9,1129.6,3083.9,1125.6,3083.9,1120.7z"/>
</g>
<g class="fade17">
<path class="st2" d="M2789.2,1018.8c0-4.9-4-8.9-9-8.9c-4.9,0-8.9,4-8.9,8.9c0,4.9,4,8.9,8.9,8.9
	C2785.2,1027.7,2789.2,1023.7,2789.2,1018.8z"/>
</g>
<circle class="st2" cx="2427.3" cy="1018.8" r="8.9"/>
<path class="st2" d="M2377.7,509.4c0-4.9-4-9-8.9-9c-4.9,0-8.9,4-8.9,9c0,4.9,4,8.9,8.9,8.9C2373.7,518.3,2377.7,514.3,2377.7,509.4
	z"/>
<circle class="st2" cx="2957.3" cy="305.6" r="8.9"/>
<g class="fade3">
	<path class="st2" d="M2789.5,815c0-4.9-4-8.9-8.9-8.9c-4.9,0-9,4-9,8.9c0,4.9,4,8.9,9,8.9C2785.5,824,2789.5,820,2789.5,815z"/>
</g>
<circle class="st2" cx="1722.8" cy="1018.8" r="8.9"/>
<circle class="st2" cx="2015.8" cy="916.9" r="8.9"/>
<path class="st2" d="M1907.1,713.1c0-4.9-4-8.9-8.9-8.9c-4.9,0-8.9,4-8.9,8.9c0,4.9,4,8.9,8.9,8.9
	C1903.1,722.1,1907.1,718.1,1907.1,713.1z"/>
<path class="st2" d="M1849.1,1222.5c0-4.9-4-8.9-8.9-8.9c-4.9,0-8.9,4-8.9,8.9c0,4.9,4,9,8.9,9
	C1845.1,1231.5,1849.1,1227.5,1849.1,1222.5z"/>
<path class="st2" d="M2024.7,1120.7c0-4.9-4-8.9-8.9-8.9s-8.9,4-8.9,8.9c0,4.9,4,9,8.9,9S2024.7,1125.6,2024.7,1120.7z"/>
<g class="fade1">
	<path class="st2" d="M2613,509.4c0-4.9-4-9-8.9-9c-4.9,0-9,4-9,9c0,4.9,4,8.9,9,8.9C2609,518.3,2613,514.3,2613,509.4z"/>
</g>
<path class="st2" d="M2727.8,101.9c0-3.5-2.8-6.3-6.3-6.3s-6.3,2.8-6.3,6.3s2.8,6.3,6.3,6.3S2727.8,105.4,2727.8,101.9z"/>
<path class="st2" d="M2612.8,305.6c0-4.9-4-8.9-8.9-8.9c-4.9,0-9,4-9,8.9c0,4.9,4,8.9,9,8.9C2608.8,314.6,2612.8,310.6,2612.8,305.6
	z"/>
<g class="fade11">
	<circle class="st2" cx="2956.8" cy="713.2" r="8.9"/>
</g>
<g class="fade9">
<path class="st2" d="M3142.3,611.3c0-4.9-4-9-8.9-9c-4.9,0-8.9,4-8.9,9c0,4.9,4,8.9,8.9,8.9C3138.3,620.2,3142.3,616.2,3142.3,611.3
	z"/>
</g>
<path class="st3" d="M2495.8,713.2c0-4.9-4-8.9-9-8.9c-4.9,0-8.9,4-8.9,8.9c0,4.9,4,8.9,8.9,8.9
	C2491.8,722.1,2495.8,718.1,2495.8,713.2z"/>
<path class="st3" d="M2495.8,1120.7c0-4.9-4-8.9-9-8.9c-4.9,0-8.9,4-8.9,8.9c0,4.9,4,9,8.9,9
	C2491.8,1129.6,2495.8,1125.6,2495.8,1120.7z"/>
<g class="fade2">
<path class="st3" d="M2671.7,407.5c0-4.9-4-8.9-9-8.9c-4.9,0-8.9,4-8.9,8.9c0,4.9,4,9,8.9,9C2667.7,416.5,2671.7,412.5,2671.7,407.5
	z"/>
</g>
<path class="st3" d="M2142.9,713.2c0-4.9-4-8.9-9-8.9c-4.9,0-8.9,4-8.9,8.9c0,4.9,4,8.9,8.9,8.9
	C2138.9,722.1,2142.9,718.1,2142.9,713.2z"/>
<path class="st3" d="M2318.9,1222.5c0-4.9-4-8.9-8.9-8.9c-4.9,0-8.9,4-8.9,8.9c0,4.9,4,9,8.9,9
	C2314.8,1231.5,2318.9,1227.5,2318.9,1222.5z"/>
<g class="fade4">
<path class="st3" d="M3024.8,1018.8c0-4.9-4-8.9-9-8.9c-4.9,0-8.9,4-8.9,8.9c0,4.9,4,8.9,8.9,8.9
	C3020.8,1027.7,3024.8,1023.7,3024.8,1018.8z"/>
</g>
<g class="fade6">
<path class="st3" d="M2671.6,1630.1c0-4.9-4-8.9-8.9-8.9c-4.9,0-9,4-9,8.9c0,4.9,4,8.9,9,8.9C2667.6,1639,2671.6,1635,2671.6,1630.1
	z"/>
</g>
<path class="st3" d="M1789.4,1528.2c0-4.9-4-8.9-9-8.9c-4.9,0-8.9,4-8.9,8.9c0,4.9,4,8.9,8.9,8.9
	C1785.4,1537.1,1789.4,1533.1,1789.4,1528.2z"/>
<path class="st3" d="M1673.4,1324.4c0-4.9-4-9-8.9-9c-4.9,0-8.9,4-8.9,9c0,4.9,4,8.9,8.9,8.9
	C1669.4,1333.4,1673.4,1329.4,1673.4,1324.4z"/>
<path class="st3" d="M1438.1,1324.4c0-4.9-4-9-9-9c-4.9,0-8.9,4-8.9,9c0,4.9,4,8.9,8.9,8.9
	C1434.1,1333.4,1438.1,1329.4,1438.1,1324.4z"/>
<circle class="st3" cx="2015.8" cy="1935.7" r="8.9"/>
<path class="st3" d="M2907,2037.6c0-4.9-4-9-8.9-9c-4.9,0-8.9,4-8.9,9c0,4.9,4,8.9,8.9,8.9C2903,2046.5,2907,2042.5,2907,2037.6z"/>
<path class="st3" d="M2495.2,1324.4c0-4.9-4-9-9-9c-4.9,0-8.9,4-8.9,9c0,4.9,4,8.9,8.9,8.9
	C2491.2,1333.4,2495.2,1329.4,2495.2,1324.4z"/>
<path class="st3" d="M2142.9,1324.4c0-4.9-4-9-9-9c-4.9,0-8.9,4-8.9,9c0,4.9,4,8.9,8.9,8.9
	C2138.9,1333.4,2142.9,1329.4,2142.9,1324.4z"/>
<circle class="st3" cx="2015.8" cy="1731.9" r="8.9"/>
<path class="st3" d="M2201.2,2037.6c0-4.9-4-9-8.9-9c-4.9,0-8.9,4-8.9,9c0,4.9,4,8.9,8.9,8.9
	C2197.2,2046.5,2201.2,2042.5,2201.2,2037.6z"/>
<g class="fade10">
<path class="st3" d="M2671.7,1833.8c0-4.9-4-8.9-8.9-8.9c-4.9,0-8.9,4-8.9,8.9c0,4.9,4,9,8.9,9
	C2667.7,1842.8,2671.7,1838.8,2671.7,1833.8z"/>
</g>
<g class="fade8">
<path class="st3" d="M3024.6,1426.3c0-4.9-4-9-8.9-9c-4.9,0-8.9,4-8.9,9c0,4.9,4,8.9,8.9,8.9
	C3020.6,1435.2,3024.6,1431.2,3024.6,1426.3z"/>
</g>
</svg>
