<?xml version="1.0" encoding="utf-8"?>
<!-- Generator: Adobe Illustrator 25.4.1, SVG Export Plug-In . SVG Version: 6.00 Build 0)  -->
<svg version="1.1" id="Layer_1" xmlns="http://www.w3.org/2000/svg" xmlns:xlink="http://www.w3.org/1999/xlink" x="0px" y="0px"
	 viewBox="0 0 1191.44 209.12" style="enable-background:new 0 0 1191.44 209.12;" xml:space="preserve">
<style type="text/css">
	.st0{fill:none;stroke:#017992;stroke-width:2;stroke-miterlimit:10;}
</style>
<g>
	<g>
		<path class="st0" d="M38.68,186.1L41.25,37.3h35.27l16.35,86.52L110.5,37.3h33.98l2.57,148.79h-23.33l-2.76-99.01l-17.27,99.01
			H82.95L64.58,86.35l-2.2,99.75H38.68z"/>
		<path class="st0" d="M168.55,186.1V37.3h66.86v22.41h-33.98v36.92h25.9v22.78h-25.9v44.45h34.35v22.23H168.55z"/>
		<path class="st0" d="M250.66,186.1V37.3h66.86v22.41h-33.98v36.92h25.9v22.78h-25.9v44.45h34.35v22.23H250.66z"/>
		<path class="st0" d="M346.18,186.1V61.74h-22.41V37.3h77.7v24.43h-22.23V186.1H346.18z"/>
		<path class="st0" d="M474.94,186.1V61.74h-22.41V37.3h77.7v24.43h-22.23V186.1H474.94z"/>
		<path class="st0" d="M543.83,186.1V37.3h32.88v60.25h22.96V37.3h33.06V186.1h-33.06v-65.03h-22.96v65.03H543.83z"/>
		<path class="st0" d="M655.33,186.1V37.3h66.86v22.41h-33.98v36.92h25.9v22.78h-25.9v44.45h34.35v22.23H655.33z"/>
		<path class="st0" d="M797.87,186.1V61.74h-22.41V37.3h77.7v24.43h-22.23V186.1H797.87z"/>
		<path class="st0" d="M866.2,186.1V37.3h66.86v22.41h-33.98v36.92h25.9v22.78h-25.9v44.45h34.35v22.23H866.2z"/>
		<path class="st0" d="M941.15,186.1L969.25,37.3h37.47l27.74,148.79h-30.31l-4.96-31.41h-21.86l-5.14,31.41H941.15z M980.27,135.03
			h15.8l-7.9-58.05L980.27,135.03z"/>
		<path class="st0" d="M1048.97,186.1l2.57-148.79h35.27l16.35,86.52l17.63-86.52h33.98l2.57,148.79h-23.33l-2.75-99.01L1114,186.1
			h-20.76l-18.37-99.75l-2.2,99.75H1048.97z"/>
	</g>
</g>
</svg>
