<?xml version="1.0" encoding="utf-8"?>
<!-- Generator: Adobe Illustrator 26.0.1, SVG Export Plug-In . SVG Version: 6.00 Build 0)  -->
<svg version="1.1" id="Layer_1" xmlns="http://www.w3.org/2000/svg" xmlns:xlink="http://www.w3.org/1999/xlink" x="0px" y="0px"
	 viewBox="0 0 1200 800" style="enable-background:new 0 0 1200 800;" xml:space="preserve">
<style type="text/css">
	.st0{fill:none;}
</style>
<path class="st0" d="M1707,194.5"/>
<path class="st0" d="M66.4,259.3c-0.9-3.1,13.6-4.7,43.4-4.7c32.9,0,49.8,2.7,50.7,8.2l21,180.8L227,260.6
	c1.4-4.3,12.6-6.4,33.5-6.4c20.9,0,32.1,2,33.5,6l44.7,184.2l24.9-182.5c0.6-3.1,7.2-5.3,19.8-6.4c12.6-1.1,22.8-1.7,30.5-1.7
	c30.1,0,44.7,2,43.8,6l-52,284.7c-1.1,4.3-9.3,7.4-24.5,9.4c-15.2,2-27.5,3-36.9,3c-35.5,0-54.1-4-55.8-12l-29.2-118.1l-31.8,117.7
	c-1.1,5.2-11.2,8.9-30.1,11.2c-9.7,0.9-19.5,1.3-29.2,1.3l-27.5-1.3c-18.9-2-28.9-5.6-30.1-10.7L66.4,259.3z"/>
<path class="st0" d="M788.6,556c-25.5,0-38.2-2.9-38.2-8.6l-9-172.2L689,549.6c-1.1,3.4-10.9,5.2-29.2,5.2
	c-18.3,0-27.8-1.6-28.3-4.7l-54.1-176.5l-6,171.3c-0.3,4.3-5.7,7.2-16.3,8.8c-10.6,1.6-19.4,2.4-26.4,2.4c-7,0-13.8-0.4-20.4-1.3
	c-13.7-2-20.5-5.6-20.2-10.7l9.9-279.1c0-6.9,17.5-10.3,52.4-10.3c10.3,0,22.9,0.8,37.8,2.4c14.9,1.6,23.2,4.7,24.9,9.2l48.1,135.3
	l42.1-135.7c2.6-7.4,22.3-11.2,59.3-11.2c10.6,0,23.3,0.8,38,2.4c14.7,1.6,22.1,4.4,22.1,8.4L835,547c0,3.2-5.6,5.4-16.7,6.9
	C807.1,555.3,797.2,556,788.6,556z"/>
<path class="st0" d="M877.5,535.8V278.2c0-7.2,1.8-12.8,5.4-17c3.6-4.1,8.2-6.2,14-6.2h71.7c45.5,0,80.1,11.5,103.7,34.4
	c23.6,22.9,35.4,59,35.4,108.2c0,105.4-44.9,158-134.8,158h-73.4C884.8,555.6,877.5,549,877.5,535.8z M960,336.6V465
	c0,6,0.4,9.8,1.3,11.4c0.9,1.6,3.4,2.4,7.7,2.4c15.7,0,27.7-5.9,35.9-17.6c8.2-11.7,12.2-31.3,12.2-58.6c0-27.3-4.2-45.2-12.7-53.5
	c-8.4-8.3-21.8-12.5-40.1-12.5H960z"/>
</svg>
